<svg xmlns="http://www.w3.org/2000/svg" version="1.1" xmlns:xlink="http://www.w3.org/1999/xlink" xmlns:svgjs="http://svgjs.dev/svgjs" width="1192.8" height="500" preserveAspectRatio="none" viewBox="0 0 1192.8 500"><g mask="url(&quot;#SvgjsMask1031&quot;)" fill="none"><path d="M127.05,269.438C177.387,271.627,222.869,240.551,247.971,196.864C272.98,153.339,274.942,99.626,249.478,56.366C224.363,13.699,176.537,-7.059,127.05,-8.566C74.362,-10.17,15.726,1.947,-9.012,48.494C-32.863,93.372,-3.577,143.807,23.072,187.082C47.921,227.433,79.706,267.379,127.05,269.438" fill="rgba(162, 24, 123, 0.4)" class="triangle-float2"></path><path d="M92.133,189.271C132.013,190.025,176.933,187.135,197.76,153.117C219.195,118.106,207.132,73.019,184.119,39.024C163.872,9.115,128.225,-1.532,92.133,-2.915C52.668,-4.427,8.599,-1.635,-12.928,31.476C-35.894,66.8,-30.15,114.179,-6.799,149.251C14.331,180.987,54.013,188.551,92.133,189.271" fill="rgba(162, 24, 123, 0.4)" class="triangle-float2"></path><path d="M30.174,80.925C50.911,81.657,74.875,79.941,85.029,61.845C95.068,43.954,83.423,23.09,72.302,5.851C62.392,-9.511,48.409,-21.895,30.174,-23.194C9.372,-24.676,-13.132,-18.908,-23.814,-0.996C-34.691,17.244,-30.048,40.463,-18.362,58.196C-7.826,74.183,11.039,80.25,30.174,80.925" fill="rgba(162, 24, 123, 0.4)" class="triangle-float2"></path><path d="M1162.891,160.06C1194.984,161.472,1224.416,142.705,1240.715,115.023C1257.266,86.915,1260.585,51.322,1243.151,23.753C1226.667,-2.314,1193.715,-9.098,1162.891,-8.044C1134.217,-7.064,1105.858,4.034,1091.605,28.934C1077.433,53.693,1082.461,83.596,1096.087,108.66C1110.47,135.117,1132.806,158.737,1162.891,160.06" fill="rgba(162, 24, 123, 0.4)" class="triangle-float3"></path><path d="M1134.944,114.811C1158.653,114.928,1173.448,91.738,1184.65,70.842C1195.055,51.434,1202.01,28.847,1191.365,9.57C1180.43,-10.232,1157.557,-18.564,1134.944,-19.166C1111.031,-19.803,1084.53,-14.576,1073.07,6.421C1061.902,26.882,1074.527,50.11,1086.083,70.354C1097.783,90.85,1111.343,114.694,1134.944,114.811" fill="rgba(162, 24, 123, 0.4)" class="triangle-float1"></path><path d="M1215.028,266.284C1263.329,264.697,1299.271,226.66,1322.687,184.385C1345.232,143.682,1353.775,95.797,1332.33,54.503C1309.188,9.94,1265.241,-23.258,1215.028,-22.924C1165.298,-22.593,1124.75,12.685,1100.396,56.045C1076.606,98.401,1071.116,149.236,1094.372,191.888C1118.615,236.35,1164.413,267.947,1215.028,266.284" fill="rgba(162, 24, 123, 0.4)" class="triangle-float1"></path><path d="M23.102,470.13C41.211,470.08,60.063,465.341,69.6,449.947C79.581,433.837,78.142,413.206,68.462,396.914C58.99,380.972,41.644,371.551,23.102,371.688C4.797,371.823,-11.722,381.862,-21.115,397.573C-30.777,413.734,-33.64,434.126,-23.841,450.205C-14.36,465.763,4.883,470.18,23.102,470.13" fill="rgba(162, 24, 123, 0.4)" class="triangle-float3"></path><path d="M60.016,548.148C88.892,546.363,107.042,520.572,121.61,495.577C136.327,470.327,151.544,440.914,137.435,415.319C123.021,389.17,89.797,381.698,60.016,383.838C33.962,385.71,13.737,403.162,-0.264,425.214C-15.682,449.497,-29.009,478.277,-16.345,504.103C-2.479,532.38,28.582,550.091,60.016,548.148" fill="rgba(162, 24, 123, 0.4)" class="triangle-float2"></path><path d="M37.5,502.78C58.97,501.695,72.941,482.784,83.609,464.121C94.168,445.649,103.162,424.141,93.196,405.343C82.75,385.639,59.768,375.922,37.5,377.151C17.143,378.275,1.972,393.448,-8.477,410.955C-19.272,429.042,-26.886,450.393,-17.455,469.228C-7.156,489.797,14.526,503.941,37.5,502.78" fill="rgba(162, 24, 123, 0.4)" class="triangle-float2"></path><path d="M1181.593,578.67C1220.175,581.577,1266.108,582.263,1285.72,548.911C1305.461,515.338,1283.533,474.785,1261.605,442.598C1242.987,415.27,1214.589,398.244,1181.593,396.071C1143.658,393.573,1099.959,397.763,1080.976,430.702C1062.008,463.615,1080.149,503.616,1101.51,535.029C1119.832,561.973,1149.102,576.222,1181.593,578.67" fill="rgba(162, 24, 123, 0.4)" class="triangle-float1"></path><path d="M1211.195,665.34C1259.55,666.585,1292.724,621.254,1314.854,578.242C1334.795,539.483,1338.103,495.354,1318.746,456.3C1296.778,411.978,1260.628,367.269,1211.195,369.1C1163.413,370.87,1136.759,420.424,1116.61,463.786C1100.147,499.214,1099.789,537.768,1116.385,573.133C1136.458,615.907,1163.961,664.124,1211.195,665.34" fill="rgba(162, 24, 123, 0.4)" class="triangle-float3"></path><path d="M1203.937,633.969C1249.957,633.231,1296.263,617.578,1320.059,578.18C1344.593,537.559,1341.641,486.429,1317.847,445.37C1294.122,404.43,1251.253,378.25,1203.937,377.8C1155.83,377.342,1110.994,401.933,1086.208,443.166C1060.635,485.707,1055.119,539.767,1081.183,582.009C1106.19,622.538,1156.32,634.732,1203.937,633.969" fill="rgba(162, 24, 123, 0.4)" class="triangle-float3"></path></g><defs><mask id="SvgjsMask1031"><rect width="1192.8" height="500" fill="#ffffff"></rect></mask><style>
                @keyframes float1 {
                    0%{transform: translate(0, 0)}
                    50%{transform: translate(-10px, 0)}
                    100%{transform: translate(0, 0)}
                }

                .triangle-float1 {
                    animation: float1 5s infinite;
                }

                @keyframes float2 {
                    0%{transform: translate(0, 0)}
                    50%{transform: translate(-5px, -5px)}
                    100%{transform: translate(0, 0)}
                }

                .triangle-float2 {
                    animation: float2 4s infinite;
                }

                @keyframes float3 {
                    0%{transform: translate(0, 0)}
                    50%{transform: translate(0, -10px)}
                    100%{transform: translate(0, 0)}
                }

                .triangle-float3 {
                    animation: float3 6s infinite;
                }
            </style></defs></svg>