<svg xmlns="http://www.w3.org/2000/svg" version="1.1" xmlns:xlink="http://www.w3.org/1999/xlink" xmlns:svgjs="http://svgjs.dev/svgjs" width="1700.8" height="500" preserveAspectRatio="none" viewBox="0 0 1700.8 500">
    <g mask="url(&quot;#SvgjsMask1085&quot;)" fill="none">
        <path d="M512.69 589.04C658.56 570.84 738.69 243.08 985.86 239.96 1233.04 236.84 1222.45 302.46 1459.04 302.46 1695.62 302.46 1812.89 240.09 1932.21 239.96" stroke="rgba(236, 72, 153, 1)" stroke-width="2"></path>
        <path d="M419.95 590.04C545.81 579.13 503.53 329.45 847.56 320.75 1191.59 312.05 1481.38 92.75 1702.77 90.75" stroke="rgba(236, 72, 153, 1)" stroke-width="2"></path>
        <path d="M819.96 579.95C968.39 571.64 1080.61 303.08 1346.05 302.76 1611.49 302.44 1736.36 436.69 1872.14 437.76" stroke="rgba(236, 72, 153, 1)" stroke-width="2"></path>
        <path d="M1070.72 599.6C1165.33 590.17 1132.78 394.57 1386.91 388.28 1641.05 381.99 1856.53 234.4 2019.3 233.28" stroke="rgba(236, 72, 153, 1)" stroke-width="2"></path>
        <path d="M416.83 504.71C609.23 504.08 785.06 363.99 1173.03 361.76 1561 359.53 1733.36 158.57 1929.23 156.76" stroke="rgba(236, 72, 153, 1)" stroke-width="2"></path>
    </g>
    <defs>
        <mask id="SvgjsMask1085">
            <rect width="1700.8" height="500" fill="#ffffff"></rect>
        </mask>
    </defs>
</svg>